<?xml version="1.0" encoding="utf-8"?>
<!-- Generator: Adobe Illustrator 19.2.0, SVG Export Plug-In . SVG Version: 6.00 Build 0)  -->
<svg version="1.1" id="Layer_1" xmlns="http://www.w3.org/2000/svg" xmlns:xlink="http://www.w3.org/1999/xlink" x="0px" y="0px"
	 viewBox="0 0 16 16" style="enable-background:new 0 0 16 16;" xml:space="preserve">
<style type="text/css">
	.st0{fill:#999999;}
</style>
<g>
	<g>
		<path class="st0" d="M12.9,0H3.1C1.4,0,0,1.3,0,3.1v3.2v6.5c0,1.7,1.3,3.1,3.1,3.1h9.7c1.7,0,3.1-1.3,3.1-3.1V6.3V3.1
			C15.9,1.3,14.5,0,12.9,0z M13.7,1.9h0.4v0.4v2.3h-2.7V1.9H13.7z M5.8,6.3C6.3,5.6,7.1,5.1,8,5.1c0.9,0,1.8,0.4,2.2,1.2
			c0.4,0.4,0.5,1,0.5,1.6c0,1.5-1.2,2.7-2.7,2.7S5.3,9.4,5.3,7.9C5.3,7.3,5.4,6.7,5.8,6.3z M14.4,12.7c0,0.8-0.7,1.5-1.5,1.5H3.1
			c-0.8,0-1.5-0.7-1.5-1.5V6.3H4C3.8,6.8,3.7,7.3,3.7,7.9c0,2.4,1.9,4.3,4.3,4.3s4.3-1.9,4.3-4.3c0-0.5-0.1-1.2-0.4-1.6h2.4V12.7z"
			/>
	</g>
</g>
</svg>
